<?xml version="1.0" encoding="UTF-8"?>
<svg width="424px" height="74px" viewBox="0 0 424 74" version="1.1" xmlns="http://www.w3.org/2000/svg" xmlns:xlink="http://www.w3.org/1999/xlink">
    <!-- Generator: Sketch 63.1 (92452) - https://sketch.com -->
    <title>ShopShows</title>
    <desc>Created with Sketch.</desc>
    <g id="Page-1" stroke="none" stroke-width="1" fill="none" fill-rule="evenodd">
        <path d="M20.948,54.504 C24.74,54.504 27.968,53.832 30.632,52.488 C33.296,51.144 35.312,49.344 36.68,47.088 C38.048,44.832 38.732,42.36 38.732,39.672 C38.732,36.36 37.988,33.672 36.5,31.608 C35.012,29.544 33.236,27.972 31.172,26.892 C29.108,25.812 26.444,24.72 23.18,23.616 C20.924,22.8 19.196,22.128 17.996,21.6 C16.796,21.072 15.8,20.388 15.008,19.548 C14.216,18.708 13.82,17.688 13.82,16.488 C13.82,15 14.264,13.872 15.152,13.104 C16.04,12.336 17.204,11.952 18.644,11.952 C20.324,11.952 21.656,12.444 22.64,13.428 C23.624,14.412 24.236,15.744 24.476,17.424 L24.476,17.424 L37.796,17.424 C37.364,12.72 35.48,9.024 32.144,6.336 C28.808,3.648 24.308,2.304 18.644,2.304 C15.14,2.304 12.032,2.892 9.32,4.068 C6.608,5.244 4.484,6.936 2.948,9.144 C1.412,11.352 0.644,13.968 0.644,16.992 C0.644,20.256 1.376,22.908 2.84,24.948 C4.304,26.988 6.056,28.524 8.096,29.556 C10.136,30.588 12.764,31.656 15.98,32.76 C18.188,33.528 19.916,34.188 21.164,34.74 C22.412,35.292 23.456,36 24.296,36.864 C25.136,37.728 25.556,38.808 25.556,40.104 C25.556,41.544 25.1,42.696 24.188,43.56 C23.276,44.424 22.028,44.856 20.444,44.856 C18.62,44.856 17.12,44.304 15.944,43.2 C14.768,42.096 14.084,40.584 13.892,38.664 L13.892,38.664 L0.788,38.664 C1.124,43.656 3.14,47.544 6.836,50.328 C10.532,53.112 15.236,54.504 20.948,54.504 Z M57.884,54 L57.884,32.688 C57.884,29.76 58.616,27.504 60.08,25.92 C61.544,24.336 63.524,23.544 66.02,23.544 C68.372,23.544 70.256,24.3 71.672,25.812 C73.088,27.324 73.796,29.424 73.796,32.112 L73.796,32.112 L73.796,54 L86.108,54 L86.108,30.672 C86.108,25.296 84.752,21.072 82.04,18 C79.328,14.928 75.668,13.392 71.06,13.392 C67.988,13.392 65.312,14.088 63.032,15.48 C60.752,16.872 59.036,18.768 57.884,21.168 L57.884,21.168 L57.884,0.72 L45.572,0.72 L45.572,54 L57.884,54 Z M113.036,54.504 C117.02,54.504 120.584,53.676 123.728,52.02 C126.872,50.364 129.344,47.976 131.144,44.856 C132.944,41.736 133.844,38.088 133.844,33.912 C133.844,29.736 132.944,26.088 131.144,22.968 C129.344,19.848 126.872,17.46 123.728,15.804 C120.584,14.148 117.02,13.32 113.036,13.32 C109.052,13.32 105.476,14.148 102.308,15.804 C99.14,17.46 96.656,19.848 94.856,22.968 C93.056,26.088 92.156,29.736 92.156,33.912 C92.156,38.088 93.056,41.736 94.856,44.856 C96.656,47.976 99.14,50.364 102.308,52.02 C105.476,53.676 109.052,54.504 113.036,54.504 Z M113.036,43.776 C110.684,43.776 108.704,42.936 107.096,41.256 C105.488,39.576 104.684,37.128 104.684,33.912 C104.684,30.696 105.488,28.236 107.096,26.532 C108.704,24.828 110.684,23.976 113.036,23.976 C115.388,23.976 117.356,24.828 118.94,26.532 C120.524,28.236 121.316,30.696 121.316,33.912 C121.316,37.128 120.524,39.576 118.94,41.256 C117.356,42.936 115.388,43.776 113.036,43.776 Z M152.564,73.152 L152.564,46.728 C153.572,49.128 155.18,51.024 157.388,52.416 C159.596,53.808 162.236,54.504 165.308,54.504 C168.62,54.504 171.584,53.676 174.2,52.02 C176.816,50.364 178.88,47.976 180.392,44.856 C181.904,41.736 182.66,38.088 182.66,33.912 C182.66,29.688 181.904,26.028 180.392,22.932 C178.88,19.836 176.816,17.46 174.2,15.804 C171.584,14.148 168.62,13.32 165.308,13.32 C162.236,13.32 159.596,14.016 157.388,15.408 C155.18,16.8 153.572,18.696 152.564,21.096 L152.564,21.096 L152.564,13.824 L140.252,13.824 L140.252,73.152 L152.564,73.152 Z M161.348,43.704 C158.756,43.704 156.632,42.816 154.976,41.04 C153.32,39.264 152.492,36.888 152.492,33.912 C152.492,30.888 153.32,28.5 154.976,26.748 C156.632,24.996 158.756,24.12 161.348,24.12 C163.988,24.12 166.112,24.984 167.72,26.712 C169.328,28.44 170.132,30.84 170.132,33.912 C170.132,36.984 169.328,39.384 167.72,41.112 C166.112,42.84 163.988,43.704 161.348,43.704 Z M207.86,54.504 C211.652,54.504 214.88,53.832 217.544,52.488 C220.208,51.144 222.224,49.344 223.592,47.088 C224.96,44.832 225.644,42.36 225.644,39.672 C225.644,36.36 224.9,33.672 223.412,31.608 C221.924,29.544 220.148,27.972 218.084,26.892 C216.02,25.812 213.356,24.72 210.092,23.616 C207.836,22.8 206.108,22.128 204.908,21.6 C203.708,21.072 202.712,20.388 201.92,19.548 C201.128,18.708 200.732,17.688 200.732,16.488 C200.732,15 201.176,13.872 202.064,13.104 C202.952,12.336 204.116,11.952 205.556,11.952 C207.236,11.952 208.568,12.444 209.552,13.428 C210.536,14.412 211.148,15.744 211.388,17.424 L211.388,17.424 L224.708,17.424 C224.276,12.72 222.392,9.024 219.056,6.336 C215.72,3.648 211.22,2.304 205.556,2.304 C202.052,2.304 198.944,2.892 196.232,4.068 C193.52,5.244 191.396,6.936 189.86,9.144 C188.324,11.352 187.556,13.968 187.556,16.992 C187.556,20.256 188.288,22.908 189.752,24.948 C191.216,26.988 192.968,28.524 195.008,29.556 C197.048,30.588 199.676,31.656 202.892,32.76 C205.1,33.528 206.828,34.188 208.076,34.74 C209.324,35.292 210.368,36 211.208,36.864 C212.048,37.728 212.468,38.808 212.468,40.104 C212.468,41.544 212.012,42.696 211.1,43.56 C210.188,44.424 208.94,44.856 207.356,44.856 C205.532,44.856 204.032,44.304 202.856,43.2 C201.68,42.096 200.996,40.584 200.804,38.664 L200.804,38.664 L187.7,38.664 C188.036,43.656 190.052,47.544 193.748,50.328 C197.444,53.112 202.148,54.504 207.86,54.504 Z M244.796,54 L244.796,32.688 C244.796,29.76 245.528,27.504 246.992,25.92 C248.456,24.336 250.436,23.544 252.932,23.544 C255.284,23.544 257.168,24.3 258.584,25.812 C260,27.324 260.708,29.424 260.708,32.112 L260.708,32.112 L260.708,54 L273.02,54 L273.02,30.672 C273.02,25.296 271.664,21.072 268.952,18 C266.24,14.928 262.58,13.392 257.972,13.392 C254.9,13.392 252.224,14.088 249.944,15.48 C247.664,16.872 245.948,18.768 244.796,21.168 L244.796,21.168 L244.796,0.72 L232.484,0.72 L232.484,54 L244.796,54 Z M299.948,54.504 C303.932,54.504 307.496,53.676 310.64,52.02 C313.784,50.364 316.256,47.976 318.056,44.856 C319.856,41.736 320.756,38.088 320.756,33.912 C320.756,29.736 319.856,26.088 318.056,22.968 C316.256,19.848 313.784,17.46 310.64,15.804 C307.496,14.148 303.932,13.32 299.948,13.32 C295.964,13.32 292.388,14.148 289.22,15.804 C286.052,17.46 283.568,19.848 281.768,22.968 C279.968,26.088 279.068,29.736 279.068,33.912 C279.068,38.088 279.968,41.736 281.768,44.856 C283.568,47.976 286.052,50.364 289.22,52.02 C292.388,53.676 295.964,54.504 299.948,54.504 Z M299.948,43.776 C297.596,43.776 295.616,42.936 294.008,41.256 C292.4,39.576 291.596,37.128 291.596,33.912 C291.596,30.696 292.4,28.236 294.008,26.532 C295.616,24.828 297.596,23.976 299.948,23.976 C302.3,23.976 304.268,24.828 305.852,26.532 C307.436,28.236 308.228,30.696 308.228,33.912 C308.228,37.128 307.436,39.576 305.852,41.256 C304.268,42.936 302.3,43.776 299.948,43.776 Z M347.252,54 L354.596,27.072 L361.868,54 L375.62,54 L385.916,13.824 L374.468,13.824 L369.14,42.84 L361.436,13.824 L348.332,13.824 L340.844,42.768 L335.516,13.824 L323.204,13.824 L333.5,54 L347.252,54 Z M407.876,54.504 C411.092,54.504 413.876,54 416.228,52.992 C418.58,51.984 420.38,50.592 421.628,48.816 C422.876,47.04 423.5,45 423.5,42.696 C423.5,39.864 422.78,37.608 421.34,35.928 C419.9,34.248 418.196,33.036 416.228,32.292 C414.26,31.548 411.74,30.816 408.668,30.096 C405.836,29.472 403.76,28.848 402.44,28.224 C401.12,27.6 400.46,26.664 400.46,25.416 C400.46,24.312 400.82,23.46 401.54,22.86 C402.26,22.26 403.316,21.96 404.708,21.96 C406.484,21.96 407.96,22.428 409.136,23.364 C410.312,24.3 411.068,25.584 411.404,27.216 L411.404,27.216 L422.924,27.216 C422.156,23.04 420.248,19.68 417.2,17.136 C414.152,14.592 410.084,13.32 404.996,13.32 C400.004,13.32 396.14,14.436 393.404,16.668 C390.668,18.9 389.3,21.816 389.3,25.416 C389.3,28.2 389.996,30.396 391.388,32.004 C392.78,33.612 394.436,34.776 396.356,35.496 C398.276,36.216 400.724,36.888 403.7,37.512 C406.676,38.184 408.824,38.82 410.144,39.42 C411.464,40.02 412.124,41.016 412.124,42.408 C412.124,43.464 411.764,44.316 411.044,44.964 C410.324,45.612 409.268,45.936 407.876,45.936 C405.86,45.936 404.216,45.48 402.944,44.568 C401.672,43.656 400.94,42.336 400.748,40.608 L400.748,40.608 L388.868,40.608 C389.588,45.072 391.58,48.504 394.844,50.904 C398.108,53.304 402.452,54.504 407.876,54.504 Z" id="ShopShows" fill="#FFFFFF" fill-rule="nonzero"></path>
    </g>
</svg>